<?xml version="1.0" encoding="UTF-8"?>
<svg id="Ebene_2" data-name="Ebene 2" xmlns="http://www.w3.org/2000/svg" viewBox="0 0 1092.25 564.62">
  <defs>
    <style>
      .cls-1 {
        fill: #c5131b;
      }

      .cls-2 {
        fill: #fff;
      }

      .cls-3 {
        fill: #fee018;
      }
    </style>
  </defs>
  <g id="Ebene_1-2" data-name="Ebene 1">
    <g>
      <g>
        <polygon class="cls-3" points="190.76 180.28 191.13 133.96 161.8 127.2 138.66 139.54 92.33 104.8 80.3 69.75 115.54 .07 23.14 46.9 0 116.92 34.02 162.29 69.33 214.96 69.33 342.21 126.79 440.26 184.63 411.35 173.44 214.96 190.76 180.28"/>
        <polygon class="cls-2" points="228.19 214.99 216.61 411.62 205.05 411.62 193.48 214.99 207.48 186.98 207.48 154.64 210.71 133.63 214.27 154.64 214.27 187.17 228.19 214.99"/>
        <polygon class="cls-3" points="231.13 179.95 230.92 133.62 260.27 126.97 283.37 139.39 329.82 104.81 341.97 69.8 306.97 0 399.21 47.15 422.11 117.26 387.92 162.5 352.44 215.05 352 342.3 294.19 440.15 236.46 411.03 248.33 214.69 231.13 179.95"/>
        <polygon class="cls-1" points="174.56 480.96 201.02 466.72 201.02 523.69 174.56 509.45 174.56 480.96"/>
        <polygon class="cls-2" points="201.02 425.8 201.02 448.19 158.06 471.71 158.06 518.72 201.02 542.22 201.02 564.62 135.67 529.91 135.67 460.51 201.02 425.8"/>
        <polygon class="cls-1" points="247.19 480.96 220.73 466.72 220.73 523.69 247.19 509.45 247.19 480.96"/>
        <polygon class="cls-2" points="220.73 425.8 220.73 448.19 263.69 471.71 263.69 518.72 220.73 542.22 220.73 564.62 286.08 529.91 286.08 460.51 220.73 425.8"/>
      </g>
      <g>
        <g>
          <path class="cls-2" d="M399.4,265.59h20.8v76.79h-20.8v-76.79Z"/>
          <path class="cls-2" d="M456.99,303.56v-1.39c2.84-1.35,4.27-4.73,4.27-10.13,0-3.27-.28-5.71-.85-7.31-.57-1.6-1.55-2.68-2.93-3.25-1.39-.57-3.33-.85-5.81-.85h-20.8l-5.87-15.04h30.29c6.26,0,11.48.8,15.68,2.4,4.19,1.6,7.34,4.27,9.44,8,2.1,3.73,3.15,8.84,3.15,15.31,0,7.47-1.64,13.19-4.91,17.17l8,33.92h-21.33l-8.32-38.82ZM451.66,342.39h-20.8v-56.42h20.8v56.42Z"/>
          <path class="cls-2" d="M514.69,326.28v17.17c-6.26-.28-11.34-1.71-15.25-4.27-3.91-2.56-6.76-6.65-8.53-12.27-1.78-5.62-2.67-13.23-2.67-22.83s.89-17.21,2.67-22.82c1.78-5.62,4.6-9.71,8.48-12.27,3.87-2.56,8.98-3.95,15.31-4.16v16.96c-1.57.85-2.63,2.92-3.2,6.19-.57,3.27-.85,8.57-.85,15.89s.28,12.68.85,16.05c.57,3.38,1.64,5.49,3.2,6.35ZM520.03,343.35v-17.07c1.56-.92,2.63-3.06,3.2-6.4.57-3.34.85-8.68.85-16s-.28-12.71-.85-15.95c-.57-3.24-1.64-5.28-3.2-6.13v-16.96c6.33.21,11.43,1.6,15.31,4.16,3.87,2.56,6.7,6.65,8.48,12.27,1.78,5.62,2.67,13.23,2.67,22.82s-.89,17.21-2.67,22.83c-1.78,5.62-4.6,9.69-8.48,12.21-3.88,2.53-8.98,3.93-15.31,4.21Z"/>
          <path class="cls-2" d="M611.01,342.39h-24.96l-38.29-76.79h24.75l38.5,76.79ZM552.13,285.54l20.27,40.96v15.89h-20.27v-56.85ZM611.01,330.44l-20.26-39.36v-25.49h20.26v64.85Z"/>
        </g>
        <g>
          <path class="cls-2" d="M669.14,307.19v21.12h1.07c3.55,0,6.17-.66,7.84-1.97,1.67-1.32,2.51-3.64,2.51-6.99,0-3.06-.82-5.44-2.45-7.15,3.27-.71,6.26-1.63,8.96-2.77,2.7-1.14,4.98-2.63,6.83-4.48,2.99,1.78,5.12,4.04,6.4,6.77,1.28,2.74,1.92,6.1,1.92,10.08,0,6.61-2.42,11.7-7.25,15.25-4.84,3.56-12.2,5.33-22.08,5.33h-24.53v-56.85h20.8v11.63h.96c3.2,0,5.53-.62,6.99-1.87,1.46-1.24,2.19-3.43,2.19-6.56s-.73-5.42-2.19-6.67c-1.46-1.24-3.79-1.87-6.99-1.87h-21.76l-5.87-14.61h32c8.6,0,14.86,1.78,18.77,5.33,3.91,3.56,5.87,8.53,5.87,14.93,0,4.05-.91,7.45-2.72,10.19-1.81,2.74-4.21,4.92-7.2,6.56-2.99,1.64-6.22,2.81-9.71,3.52-3.48.71-6.93,1.07-10.35,1.07Z"/>
          <path class="cls-2" d="M731,326.28v17.07c-7.96-.36-13.88-2.77-17.76-7.25-3.88-4.48-5.81-11.41-5.81-20.8v-49.7h20.8v50.66c0,5.48.92,8.82,2.77,10.03ZM736.33,343.35v-17.28c1.71-1.21,2.56-4.48,2.56-9.81v-50.66h20.8v49.7c0,9.32-1.92,16.21-5.76,20.69-3.84,4.48-9.71,6.93-17.6,7.36Z"/>
          <path class="cls-2" d="M789.56,318.92h-20.8v-53.33h20.8v53.33ZM768.76,324.25h44.37l-3.31,18.13h-41.06v-18.13Z"/>
          <path class="cls-2" d="M839.26,318.92h-20.8v-53.33h20.8v53.33ZM818.46,324.25h44.37l-3.31,18.13h-41.06v-18.13Z"/>
          <path class="cls-2" d="M888.11,314.12l8.85-18.88,4.59,2.03c4.83,2.13,8.35,4.78,10.56,7.95,2.2,3.16,3.31,7.66,3.31,13.49,0,7.89-2.06,13.97-6.19,18.24-4.13,4.27-10.92,6.43-20.37,6.51-4.69,0-9.07-.3-13.12-.91-4.05-.6-7.64-1.3-10.77-2.08l2.13-17.17c3.48.57,6.68,1,9.6,1.28,2.91.28,6.11.43,9.6.43,2.7,0,4.73-.39,6.08-1.17,1.35-.78,2.03-2.06,2.03-3.84,0-1.21-.32-2.17-.96-2.88-.64-.71-1.78-1.42-3.41-2.13l-1.92-.85ZM891.95,293.11l-8.75,18.66-4.48-2.03c-4.2-1.92-7.43-4.48-9.71-7.68-2.28-3.2-3.41-7.86-3.41-13.97,0-7.82,2.04-13.67,6.13-17.55,4.09-3.87,10.86-5.85,20.32-5.92,3.91,0,7.47.18,10.67.53,3.2.36,6.72.92,10.56,1.71l-2.13,17.17c-3.48-.43-6.51-.73-9.07-.91-2.56-.18-5.05-.27-7.47-.27-2.56,0-4.5.37-5.81,1.12-1.32.75-1.97,2.15-1.97,4.21,0,1.14.46,2.06,1.39,2.77.92.71,2.17,1.42,3.73,2.13Z"/>
        </g>
        <g>
          <path class="cls-2" d="M972.58,326.28v17.07c-7.96-.36-13.88-2.77-17.76-7.25-3.88-4.48-5.81-11.41-5.81-20.8v-49.7h20.8v50.66c0,5.48.92,8.82,2.77,10.03ZM977.91,343.35v-17.28c1.71-1.21,2.56-4.48,2.56-9.81v-50.66h20.8v49.7c0,9.32-1.92,16.21-5.76,20.69-3.84,4.48-9.71,6.93-17.6,7.36Z"/>
          <path class="cls-2" d="M1036.47,303.56v-1.39c2.84-1.35,4.27-4.73,4.27-10.13,0-3.27-.28-5.71-.85-7.31-.57-1.6-1.55-2.68-2.93-3.25-1.39-.57-3.33-.85-5.81-.85h-20.8l-5.87-15.04h30.29c6.26,0,11.48.8,15.68,2.4,4.19,1.6,7.34,4.27,9.44,8,2.1,3.73,3.15,8.84,3.15,15.31,0,7.47-1.64,13.19-4.91,17.17l8,33.92h-21.33l-8.32-38.82ZM1031.14,342.39h-20.8v-56.42h20.8v56.42Z"/>
          <path class="cls-2" d="M1071.46,265.59h20.8v76.79h-20.8v-76.79Z"/>
        </g>
      </g>
    </g>
  </g>
</svg>